<?xml version="1.0" encoding="utf-8"?>
<!-- Generator: Adobe Illustrator 26.3.1, SVG Export Plug-In . SVG Version: 6.00 Build 0)  -->
<svg version="1.1" id="Layer_1" xmlns="http://www.w3.org/2000/svg" xmlns:xlink="http://www.w3.org/1999/xlink" x="0px" y="0px"
	 viewBox="0 0 36 38" style="enable-background:new 0 0 36 38;" xml:space="preserve">
<style type="text/css">
	.st0{fill:#A7A7A7;}
</style>
<g>
	<path class="st0" d="M32.5,18.5c0,2.2,0,4.5,0,6.7c0,3.2-1.5,5.6-4.2,7.3c-1.6,1-3.3,1.4-5.2,1.4c-4.1,0-8.1,0-12.2,0
		c-2.8,0-5.3-1-7.2-3.1c-1.2-1.3-1.9-2.8-2.1-4.6c0-0.4,0-0.7,0-1.1c0-4.4,0-8.9,0-13.3c0-3.3,1.5-5.7,4.2-7.4
		c1.6-1,3.4-1.4,5.2-1.4c4.1,0,8.1,0,12.2,0c2.8,0,5.3,1,7.2,3.1c1.2,1.3,1.9,2.8,2.1,4.6c0.1,0.7,0,1.4,0,2.1
		C32.5,14.7,32.5,16.6,32.5,18.5z M3.8,18.5c0,2.3,0,4.6,0,6.9c0,1.6,0.6,2.9,1.7,4c1.4,1.5,3.2,2.2,5.3,2.2c4.1,0,8.2,0,12.3,0
		c1.3,0,2.6-0.3,3.7-0.9c2.1-1.2,3.4-3,3.4-5.6c0-4.5,0-9,0-13.5c0-1.6-0.6-2.9-1.6-4c-1.4-1.5-3.2-2.3-5.3-2.3c-4.1,0-8.3,0-12.4,0
		c-1.3,0-2.5,0.3-3.6,0.9c-2.1,1.2-3.4,3-3.4,5.6C3.8,14.1,3.8,16.3,3.8,18.5z"/>
	<path class="st0" d="M17,25.2c-4,0-7.3-3.2-7.3-7.2c0-3.9,3.3-7.1,7.3-7.1c4,0,7.3,3.2,7.3,7.2C24.3,22,21,25.2,17,25.2z M17,22.9
		c2.7,0,5-2.2,5-4.9c0-2.7-2.2-4.9-4.9-4.9c-2.7,0-5,2.2-5,4.9C12.1,20.7,14.3,22.9,17,22.9z"/>
	<path class="st0" d="M23.6,10.2c0-0.9,0.7-1.6,1.5-1.6c0.8,0,1.5,0.7,1.5,1.6c0,0.9-0.7,1.6-1.5,1.6C24.3,11.8,23.6,11.1,23.6,10.2
		z"/>
</g>
</svg>
