<?xml version="1.0" encoding="utf-8"?>
<!-- Generator: Adobe Illustrator 26.3.1, SVG Export Plug-In . SVG Version: 6.00 Build 0)  -->
<svg version="1.1" id="Layer_1" xmlns="http://www.w3.org/2000/svg" xmlns:xlink="http://www.w3.org/1999/xlink" x="0px" y="0px"
	 viewBox="0 0 36 34" style="enable-background:new 0 0 36 34;" xml:space="preserve">
<style type="text/css">
	.st0{fill:#A8A8A8;}
	.st1{fill:#D5D5D5;}
</style>
<g>
	<path class="st0" d="M15.9,25.3c-0.1,0.4-0.3,0.8-0.4,1.2c-0.2,0.6-0.5,1.2-0.7,1.9c-0.1,0.3-0.2,0.4-0.5,0.4c-0.3,0-0.5,0-0.8,0
		c-0.2,0-0.4-0.1-0.4-0.3c-0.4-1.2-0.9-2.5-1.3-3.7c-0.4-1.2-0.9-2.3-1.3-3.5c-0.3-0.9-0.6-1.8-1-2.7c-0.5-1.4-1.1-2.9-1.6-4.3
		c-0.4-1.2-0.9-2.5-1.3-3.7C6.2,9.2,5.7,7.9,5.3,6.6C5.2,6.4,5.1,6.4,4.9,6.4c-0.4,0-0.8,0-1.2,0C3.3,6.3,3,5.9,3,5.5
		c0-0.4,0.4-0.8,0.8-0.8c0.9,0,1.9,0,2.8,0c1.6,0,3.1-0.1,4.7-0.2c0.1,0,0.2,0,0.3,0c0.3,0,0.6,0.2,0.7,0.5c0,0.4-0.1,0.7-0.5,0.7
		c-0.5,0.1-0.9,0.1-1.4,0.1c-0.4,0-0.4,0.1-0.3,0.4c0.3,0.8,0.5,1.6,0.8,2.4c0.3,1,0.7,2,1,3c0.4,1.1,0.7,2.2,1.1,3.3
		c0.3,1,0.7,2,1,2.9c0.3,1,0.7,2,1,3c0.1,0.4,0.3,0.8,0.4,1.2c0,0.1,0,0.2,0.2,0.2c0.1,0,0.1-0.1,0.2-0.2c0.3-0.9,0.6-1.7,0.9-2.6
		c0.3-0.8,0.5-1.6,0.8-2.4c0.3-1,0.7-1.9,1-2.9c0.2-0.6,0.4-1.1,0.6-1.7c0.1-0.3-0.1-0.6-0.2-0.9c-0.3-0.8-0.6-1.5-0.8-2.3
		c-0.3-0.9-0.7-1.8-1-2.7c-0.1-0.2-0.2-0.4-0.2-0.7c0-0.2-0.1-0.2-0.3-0.2c-0.5,0-1-0.1-1.5-0.2c-0.4,0-0.5-0.3-0.5-0.7
		c0-0.3,0.2-0.6,0.6-0.5c1.1,0,2.2,0.1,3.3,0.2c0.6,0,1.2,0,1.8,0c0.5,0,1.1,0,1.6-0.1c0.5-0.1,1-0.1,1.5-0.1c0.4,0,0.6,0.2,0.6,0.6
		c0,0.3-0.2,0.6-0.6,0.6c-0.5,0.1-1,0.1-1.5,0.2c-0.2,0-0.2,0.1-0.1,0.2c0.3,1,0.7,2,1,3c0.3,1,0.7,1.9,1,2.9c0.3,1,0.6,1.9,1,2.9
		c0.4,1.3,0.9,2.7,1.4,4c0.4,1.1,0.7,2.2,1.1,3.3c0,0.1,0,0.1,0.1,0.1c0.1,0,0.1-0.1,0.1-0.1c0.1-0.3,0.2-0.7,0.3-1
		c0.1-0.4,0.2-0.8,0.3-1.1c0.1-0.3,0.2-0.7,0.3-1c0.2-0.9,0.5-1.7,0.8-2.6c0.5-1.3,0.8-2.7,0.8-4.1c0-1.3-0.4-2.6-1-3.7
		c-0.5-0.8-1-1.6-1.4-2.5c-0.5-1.2-0.6-2.6,0.5-3.6c0.5-0.5,1-0.7,1.7-0.7c1,0,1.8,0.2,2.4,1c0.5,0.6,0.7,1.2,0.9,1.9
		c0.2,1.4,0.2,2.8,0,4.2c-0.2,1.5-0.7,2.9-1.2,4.3c-0.4,1.2-0.8,2.3-1.2,3.5c-0.4,1.1-0.8,2.2-1.2,3.4c0,0,0,0.1,0,0.1
		c-0.2,0.1-0.2,0.2-0.2,0.4c0,0,0,0.1,0,0.1c-0.2,0.1-0.2,0.3-0.2,0.4c0,0,0,0.1,0,0.1c-0.2,0.1-0.2,0.3-0.2,0.4c0,0.1,0,0.1,0,0.2
		c-0.2,0.1-0.1,0.2-0.1,0.4c0,0.1,0,0.1,0,0.2c-0.1,0.1-0.2,0.2-0.1,0.3c0,0,0,0.1,0,0.1c-0.2,0.1-0.2,0.3-0.2,0.4c0,0,0,0.1,0,0.1
		c-0.2,0.1-0.2,0.3-0.2,0.4c0,0,0,0.1,0,0.1c-0.2,0.2-0.3,0.5-0.3,0.8c-0.2,0.7-0.5,1.5-0.7,2.2c-0.2,0.5-0.3,1.1-0.6,1.6
		c-0.1,0.1-0.1,0.2-0.3,0.2c-0.3,0-0.6,0-0.9,0c-0.2,0-0.3-0.1-0.3-0.2c-0.3-0.8-0.7-1.6-0.9-2.4c-0.3-0.9-0.7-1.8-1-2.6
		c-0.1-0.4-0.3-0.8-0.4-1.2c0-0.2,0-0.4-0.2-0.5l0,0c0-0.2,0-0.4-0.2-0.5c-0.3-0.9-0.7-1.8-1-2.8c-0.4-1.2-0.9-2.4-1.3-3.6
		c0-0.1,0-0.2-0.2-0.2c-0.1,0-0.1,0.1-0.1,0.2c-0.4,1.1-0.7,2.2-1.1,3.3c-0.3,0.8-0.5,1.5-0.8,2.3c-0.1,0.4-0.3,0.9-0.4,1.3
		c-0.2,0.1-0.2,0.4-0.3,0.6c-0.1,0.3-0.3,0.6-0.3,0.9c0,0,0,0,0,0.1c-0.2,0.1-0.1,0.3-0.2,0.4l0,0c-0.2,0.1-0.2,0.3-0.2,0.5l0,0
		c-0.2,0.1-0.2,0.3-0.2,0.5l0,0C15.9,24.9,16,25.1,15.9,25.3z"/>
	<path class="st1" d="M16.7,23.2c0-0.3,0.2-0.6,0.3-0.9c0.1-0.2,0-0.5,0.3-0.6C17.1,22.2,16.9,22.7,16.7,23.2z"/>
	<path class="st1" d="M27.7,24.7c0-0.3,0.1-0.6,0.3-0.8C28,24.2,27.9,24.5,27.7,24.7z"/>
	<path class="st1" d="M16.3,24.2c0-0.2,0-0.4,0.2-0.5C16.5,23.9,16.5,24.1,16.3,24.2z"/>
	<path class="st1" d="M16.1,24.7c0-0.2,0-0.4,0.2-0.5C16.3,24.4,16.3,24.6,16.1,24.7z"/>
	<path class="st1" d="M22.3,21.7c0.2,0.1,0.2,0.3,0.2,0.5C22.3,22.1,22.4,21.9,22.3,21.7z"/>
	<path class="st1" d="M15.9,25.3c0-0.2,0-0.4,0.2-0.5C16.1,24.9,16.1,25.1,15.9,25.3z"/>
	<path class="st1" d="M28.2,23.2c0-0.2-0.1-0.4,0.2-0.4C28.3,23,28.4,23.2,28.2,23.2z"/>
	<path class="st1" d="M28,23.8c0-0.2-0.1-0.4,0.2-0.4C28.2,23.5,28.2,23.7,28,23.8z"/>
	<path class="st1" d="M29.1,20.6c0-0.2,0-0.3,0.2-0.4C29.2,20.4,29.3,20.5,29.1,20.6z"/>
	<path class="st1" d="M22.2,21.2c0.2,0.1,0.1,0.3,0.2,0.5C22.2,21.6,22.2,21.4,22.2,21.2z"/>
	<path class="st1" d="M28.9,21.2c0-0.2,0-0.3,0.2-0.4C29.1,20.9,29.1,21.1,28.9,21.2z"/>
	<path class="st1" d="M28.7,21.7c0-0.2,0-0.4,0.2-0.4C28.9,21.4,28.9,21.6,28.7,21.7z"/>
	<path class="st1" d="M16.5,23.7c0-0.2,0-0.3,0.2-0.4C16.6,23.4,16.7,23.6,16.5,23.7z"/>
	<path class="st1" d="M28.5,22.3c0-0.1,0-0.3,0.1-0.4C28.7,22,28.7,22.2,28.5,22.3z"/>
	<path class="st1" d="M28.4,22.7c-0.1-0.1,0-0.2,0.1-0.3C28.5,22.5,28.5,22.7,28.4,22.7z"/>
</g>
</svg>
