<?xml version="1.0" ?><!DOCTYPE svg  PUBLIC '-//W3C//DTD SVG 1.1//EN'  'http://www.w3.org/Graphics/SVG/1.1/DTD/svg11.dtd'><svg enable-background="new 0 0 512 512" id="Layer_1" version="1.1" viewBox="0 0 512 512" xml:space="preserve" xmlns="http://www.w3.org/2000/svg" xmlns:xlink="http://www.w3.org/1999/xlink"><g><path d="M221,430c-2.2,6.7-4.4,13.4-6.8,20.1c-3.7,10.4-7.7,20.7-11.1,31.2c-1.5,4.7-3.5,7.1-8.7,6.6   c-4.3-0.4-8.7-0.4-13,0c-4,0.4-5.9-1.7-7.1-4.9c-7.5-20.7-14.8-41.5-22.3-62.2c-7.1-19.8-14.4-39.5-21.6-59.2   c-5.5-15.1-10.9-30.3-16.4-45.4c-8.9-24.3-17.9-48.5-26.8-72.7c-7.5-20.7-14.8-41.5-22.3-62.2c-7.9-22-15.9-43.9-23.9-65.8   c-1-2.8-2.8-3.8-5.7-3.8c-6.5,0.1-13,0.1-19.4-0.7c-7.3-0.8-13.1-6.7-12.9-13.8c0.2-7,6.3-13.2,13.6-13.3c16-0.2,32-0.3,48-0.2   c26.3,0.1,52.5-1.6,78.8-3c1.5-0.1,2.9-0.5,4.4-0.7c5.6-0.4,10.5,3.3,11.1,8.5c0.8,6.6-2.5,11.4-8.8,12.1   c-7.8,0.9-15.5,1.5-23.3,2.1c-6.1,0.4-6.7,0.9-4.9,6.3c4.4,13.6,8.9,27.1,13.5,40.6c5.7,17,11.6,33.9,17.2,50.8   c6.3,18.7,12.5,37.5,18.7,56.2c5.5,16.5,11.1,33,16.6,49.5c5.7,17,11.4,33.9,17.1,50.9c2.3,6.9,4.6,13.7,7,20.6   c0.5,1.5,0.7,3.6,2.8,3.7c2.2,0.1,2.3-2.1,2.8-3.6c4.9-14.6,9.8-29.1,14.5-43.7c4.4-13.5,8.6-27.1,13.1-40.6   c5.4-16.1,11.1-32.2,16.6-48.3c3.2-9.3,6.2-18.8,9.4-28.1c1.9-5.6-2-9.9-3.5-14.5c-4.3-13.1-9.3-26.1-14-39.1   c-5.5-15-11-30.1-16.5-45.1c-1.4-3.7-3.1-7.3-4-11.2c-0.7-2.9-2.2-3.6-4.8-3.9c-8.3-0.7-16.5-1.7-24.8-2.6c-6.1-0.7-9.1-4.5-8.7-11   c0.3-5.6,3.9-9.3,9.7-9c18.8,0.8,37.5,2,56.3,2.8c9.8,0.4,19.6,0.6,29.5-0.3c8.9-0.8,17.9-0.2,26.9-1.2c8.6-1,17.3-1.1,25.9-1.3   c6.8-0.2,10.5,3.4,10.7,9.7c0.2,5.7-3.5,9.8-9.7,10.4c-8.6,0.9-17.2,1.9-25.8,2.6c-3.2,0.3-3.3,1.1-2.3,4c5.7,16.9,11,34,16.7,51   c5.4,16.1,11.6,31.9,16.6,48.1c5,16.4,10.8,32.5,16.1,48.8c7.3,22.5,15.3,44.8,22.8,67.3c6.1,18.2,11.9,36.5,17.7,54.8   c0.4,1.1,0.3,2.3,1.9,2.4c1.8,0.2,2.1-1.1,2.5-2.4c1.8-5.7,3.7-11.3,5.5-17c1.9-6.3,3.6-12.7,5.5-19c1.8-5.8,4.1-11.5,5.6-17.4   c3.8-15,9-29.4,14-44c7.7-22.4,14.1-45.1,13.9-68.9c-0.2-22.3-6.3-43.1-17.1-62.7c-7.7-13.9-17.1-26.8-23.7-41.4   c-9.2-20.5-9.4-43.6,8-60.7c7.9-7.7,17.4-11.5,28.7-11.9c16.1-0.6,29.9,3.6,40.5,16.2c7.8,9.4,12.6,20.4,14.6,32.4   c3.9,23.8,3,47.7,0.4,71.6c-2.8,25.3-11.4,48.9-19.9,72.7c-7,19.6-13.6,39.4-20.4,59.1c-6.6,18.9-13.2,37.8-19.8,56.7   c-0.2,0.5-0.2,1-0.3,1.5c-3.4,1.4-3.4,4.2-2.9,7.2c-0.1,0.6-0.1,1.2-0.2,1.8c-3.3,1.5-3.3,4.3-2.8,7.2c-0.1,0.6-0.2,1.2-0.2,1.7   c-3.5,1.5-2.8,4.7-3.2,7.5c-0.2,0.9-0.4,1.8-0.5,2.7c-2.9,1.3-2,4.1-2.5,6.3c-0.2,0.9-0.4,1.8-0.5,2.7c-2.2,1.1-3,2.8-2,5.1   c-0.1,0.6-0.1,1.2-0.2,1.8c-4.2,1.1-2.6,4.5-2.9,7.2c-0.1,0.6-0.1,1.2-0.2,1.7c-4.1,1.2-2.6,4.6-2.8,7.3c-0.3,0.7-0.5,1.4-0.8,2.1   c-3.4,4-4.8,8.7-5.1,13.8c-4,12.5-7.7,25.2-12.3,37.5c-3.3,8.9-5.6,18.2-10.4,26.6c-1.2,2.2-2.4,2.8-4.6,2.8c-4.8,0-9.7-0.1-14.5,0   c-3,0.1-4.8-1.4-5.8-3.8c-5.5-13.4-11.3-26.7-15.9-40.5c-5-15-11-29.7-16.4-44.5c-2.5-6.6-4.7-13.4-7.1-20   c-0.3-3.2,0.5-6.8-3.1-8.9c0,0,0,0,0,0c-0.7-2.8,0.4-6.2-2.9-8c-5.8-15.6-11.8-31.1-17.5-46.7c-7.4-20.4-14.6-40.9-21.9-61.4   c-0.5-1.3-0.6-3.1-2.7-2.9c-1.9,0.1-1.8,1.7-2.2,2.9c-6.3,18.8-12.5,37.6-18.9,56.3c-4.4,12.8-9.1,25.4-13.6,38.2   c-2.5,7.2-4.7,14.4-7.1,21.6c-3.9,2.3-3,6.7-4.3,10c-1.9,4.9-4.3,9.7-4.6,15c-0.1,0.3-0.1,0.6-0.2,0.9c-2.7,1.7-2.4,4.6-2.8,7.2   c0,0,0,0,0,0c-3.6,2.1-2.8,5.7-3,8.9c0,0,0,0,0,0c-3.5,2.1-2.8,5.7-3,9c0,0,0,0,0,0C220.5,423.2,221.3,426.8,221,430z" fill="#A8A8A8"/><path d="M233.1,395.1c0.3-5.4,2.7-10.2,4.6-15c1.3-3.4,0.4-7.8,4.3-10C240.2,378.7,238.1,387.4,233.1,395.1z" fill="#D5D5D5"/><path d="M418.9,420.9c0.4-5.1,1.8-9.9,5.1-13.8C424.2,412.4,422.3,416.9,418.9,420.9z" fill="#D5D5D5"/><path d="M227.1,412.1c0.2-3.3-0.5-6.8,3-8.9C229.9,406.4,230.5,409.9,227.1,412.1z" fill="#D5D5D5"/><path d="M224,421c0.3-3.2-0.5-6.8,3-9C226.9,415.4,227.5,418.9,224,421z" fill="#D5D5D5"/><path d="M328.9,370.1c3.6,2.1,2.8,5.7,3.1,8.9C328.5,376.9,329.3,373.3,328.9,370.1z" fill="#D5D5D5"/><path d="M221,430c0.3-3.2-0.4-6.8,3.1-9C223.7,424.3,224.4,427.8,221,430z" fill="#D5D5D5"/><path d="M427.9,396c0.2-2.7-1.3-6.1,2.9-7.2C430.1,391.3,430.8,394.4,427.9,396z" fill="#D5D5D5"/><path d="M424.8,405c0.2-2.7-1.3-6.1,2.8-7.3C427.1,400.3,427.8,403.4,424.8,405z" fill="#D5D5D5"/><path d="M442.9,352c-0.5-3-0.5-5.8,2.9-7.2C445.1,347.3,445.8,350.4,442.9,352z" fill="#D5D5D5"/><path d="M326,362c3.4,1.8,2.2,5.3,2.9,8C325.9,368.1,326,365.1,326,362z" fill="#D5D5D5"/><path d="M439.9,361c-0.5-3-0.5-5.7,2.8-7.2C442.5,356.5,442.1,359.1,439.9,361z" fill="#D5D5D5"/><path d="M436.5,370.2c0.4-2.8-0.3-6,3.2-7.5C439.5,365.6,439.1,368.4,436.5,370.2z" fill="#D5D5D5"/><path d="M230.1,403.1c0.4-2.6,0.1-5.5,2.8-7.2C232.9,398.7,233.2,401.5,230.1,403.1z" fill="#D5D5D5"/><path d="M433.4,379.2c0.5-2.2-0.5-5,2.5-6.3C436.1,375.4,435.9,377.8,433.4,379.2z" fill="#D5D5D5"/><path d="M430.9,387c-1-2.3-0.2-4,2-5.1C433.1,383.9,433.3,386,430.9,387z" fill="#D5D5D5"/></g></svg>