<?xml version="1.0" encoding="utf-8"?>
<!-- Generator: Adobe Illustrator 26.3.1, SVG Export Plug-In . SVG Version: 6.00 Build 0)  -->
<svg version="1.1" id="Layer_1" xmlns="http://www.w3.org/2000/svg" xmlns:xlink="http://www.w3.org/1999/xlink" x="0px" y="0px"
	 viewBox="0 0 36.7 36.7" style="enable-background:new 0 0 36.7 36.7;" xml:space="preserve">
<style type="text/css">
	.st0{fill:#A7A7A7;}
</style>
<g>
	<path class="st0" d="M20.1,26.8c0,2.6,0,5.1,0,7.7c0,0.3-0.1,0.4-0.4,0.3c-2.2,0-4.4,0-6.6,0c-0.3,0-0.4-0.1-0.4-0.4
		c0-5.1,0.1-10.2,0.1-15.3c0-0.5,0.1-0.4-0.5-0.5c-0.9,0-1.9,0-2.8,0c-0.2,0-0.3-0.1-0.3-0.3c0-1.6,0-3.2,0-4.9
		c0-0.2,0.1-0.3,0.3-0.3c1,0,1.9,0,2.9,0c0.3,0,0.3-0.1,0.3-0.3c0-1.4,0-2.7,0-4.1c0-1.1,0.2-2.2,0.8-3.2c0.6-1.1,1.5-1.8,2.7-2.3
		c1-0.4,2-0.6,3-0.6c2.1-0.1,4.1,0,6.2,0c0.2,0,0.3,0.1,0.3,0.3c0,1.7,0,3.4,0,5.1c0,0.3-0.1,0.3-0.3,0.3c-1.2,0-2.4,0-3.5,0
		c-1,0-1.7,0.7-1.7,1.7c0,1,0,2,0,3c0,0.3,0.1,0.4,0.4,0.4c1.6,0,3.2,0,4.9,0c0.3,0,0.4,0.1,0.3,0.3c-0.1,0.8-0.2,1.6-0.3,2.5
		c-0.1,0.8-0.2,1.6-0.4,2.4c0,0.2-0.1,0.3-0.3,0.3c-1.4,0-2.8,0-4.2,0c-0.5,0-0.5-0.1-0.5,0.5C20.2,21.8,20.2,24.3,20.1,26.8z"/>
</g>
</svg>
