<?xml version="1.0" encoding="utf-8"?>
<!-- Generator: Adobe Illustrator 26.3.1, SVG Export Plug-In . SVG Version: 6.00 Build 0)  -->
<svg version="1.1" id="Layer_1" xmlns="http://www.w3.org/2000/svg" xmlns:xlink="http://www.w3.org/1999/xlink" x="0px" y="0px"
	 viewBox="0 0 38 38" style="enable-background:new 0 0 38 38;" xml:space="preserve">
<style type="text/css">
	.st0{fill:#A7A7A7;}
	.st1{fill:#E0E0E0;}
</style>
<g>
	<path class="st0" d="M4.4,6.5c0.1,0,0.1-0.1,0.1-0.2c0.2-1.2,0.8-2.1,2-2.5c1-0.3,1.9-0.3,2.8,0.2c0.6,0.3,1,0.8,1.2,1.5
		c0.2,0.5,0.3,0.9,0.2,1.4c-0.1,1.2-0.7,2.3-2,2.7c-1,0.4-2,0.2-3-0.3C5.7,9.1,5.5,9,5.3,9l0,0c0-0.1,0-0.2-0.1-0.2
		c-0.4-0.5-0.6-1-0.7-1.7c0-0.1,0-0.2-0.1-0.2C4.4,6.8,4.4,6.6,4.4,6.5z"/>
	<path class="st0" d="M20.7,16.1c0.3-0.2,0.4-0.4,0.5-0.6c0.6-0.9,1.4-1.6,2.4-2.1c1.4-0.7,2.8-0.7,4.3-0.6C29,13,30,13.4,31,14
		c1.1,0.7,2,1.8,2.5,3c0.3,0.7,0.6,1.5,0.7,2.3c0.1,0.8,0.2,1.5,0.2,2.3c0,3.9,0,7.7,0,11.6c0,0.3-0.1,0.3-0.3,0.3
		c-1.8,0-3.6,0-5.4,0c-0.3,0-0.3-0.1-0.3-0.3c0-3.6,0-7.3,0-10.9c0-0.8-0.1-1.6-0.5-2.4c-0.4-0.7-0.9-1.1-1.6-1.4
		c-0.9-0.4-1.9-0.4-2.9-0.2c-1,0.3-1.7,0.9-2.2,1.8c-0.3,0.5-0.4,1-0.4,1.6c-0.1,0.6-0.1,1.2-0.1,1.8c0,3.2,0,6.5,0,9.7
		c0,0.3-0.1,0.4-0.4,0.4c-1.8,0-3.6,0-5.4,0c-0.2,0-0.3-0.1-0.3-0.3c0-0.2,0-0.3,0-0.5c0-6.2,0-12.5,0-18.7c0-0.3,0.1-0.4,0.3-0.4
		c1.8,0,3.6,0,5.4,0c0.2,0,0.3,0.1,0.3,0.3C20.7,14.6,20.7,15.4,20.7,16.1z"/>
	<path class="st0" d="M10.8,13.8c0,0.2,0,0.4,0,0.6c0,6.2,0,12.5,0,18.7c0,0.4,0,0.4-0.4,0.4c-1.9,0-3.8,0-5.7,0c0-0.1,0-0.3,0-0.4
		c0-4.7,0-9.3,0-14c0-1.7,0-3.3,0-5c0-0.2,0.1-0.3,0.3-0.3C6.9,13.8,8.8,13.8,10.8,13.8z"/>
	<path class="st1" d="M10.8,13.8c-1.9,0-3.8,0-5.8,0c-0.2,0-0.3,0.1-0.3,0.3c0,1.7,0,3.3,0,5c0,4.7,0,9.3,0,14c0,0.1,0,0.3,0,0.4
		c-0.1,0-0.2,0-0.2-0.1c0-0.1,0-0.2,0-0.2c0-6.3,0-12.6,0-19c0-0.5,0-0.5,0.5-0.5c1.8,0,3.6,0,5.4,0C10.6,13.7,10.7,13.6,10.8,13.8z
		"/>
	<path class="st1" d="M5.3,9c0.2,0,0.4,0.1,0.4,0.4C5.6,9.2,5.4,9.1,5.3,9z"/>
	<path class="st1" d="M5.2,8.8c0.1,0,0.1,0.1,0.1,0.2C5.2,9,5.2,8.9,5.2,8.8z"/>
</g>
</svg>
