<svg xmlns="http://www.w3.org/2000/svg" xmlns:xlink="http://www.w3.org/1999/xlink" width="500" zoomAndPan="magnify" viewBox="0 0 375 374.999991" height="500" preserveAspectRatio="xMidYMid meet" version="1.0"><defs><g/><clipPath id="id1"><path d="M 56.035156 208.503906 L 270.535156 208.503906 L 270.535156 237.003906 L 56.035156 237.003906 Z M 56.035156 208.503906 " clip-rule="nonzero"/></clipPath></defs><rect x="-37.5" width="450" fill="#ffffff" y="-37.499999" height="449.999989" fill-opacity="1"/><rect x="-37.5" width="450" fill="#ffffff" y="-37.499999" height="449.999989" fill-opacity="1"/><rect x="-37.5" width="450" fill="#ffffff" y="-37.499999" height="449.999989" fill-opacity="1"/><rect x="-37.5" width="450" fill="#ffffff" y="-37.499999" height="449.999989" fill-opacity="1"/><g fill="#a2d335" fill-opacity="1"><g transform="translate(33.63911, 322.587584)"><g><path d="M 179 -3.421875 L 92.351562 -226.316406 C 91.496094 -228.597656 87.503906 -228.597656 86.648438 -226.316406 L 0.285156 -3.421875 C -0.570312 -1.710938 0.570312 0 3.136719 0 L 42.183594 0 C 43.324219 0 44.75 -0.570312 45.035156 -1.710938 L 89.5 -128.835938 L 134.535156 -1.710938 C 134.820312 -0.570312 136.246094 0 137.101562 0 L 176.4375 0 C 178.429688 0 179.855469 -1.710938 179 -3.421875 Z M 179 -3.421875 "/></g></g></g><g fill="#000000" fill-opacity="1"><g transform="translate(170.933935, 293.57009)"><g><path d="M 111.164062 -160.1875 C 111.164062 -135.105469 77.527344 -135.105469 77.527344 -135.105469 L 43.324219 -135.105469 L 43.324219 -187.265625 L 77.527344 -187.265625 C 77.527344 -187.265625 111.164062 -187.550781 111.164062 -160.1875 Z M 154.773438 -162.753906 C 154.773438 -229.738281 77.527344 -228.027344 77.527344 -228.027344 L 3.136719 -228.027344 C 1.425781 -228.027344 0 -226.601562 0 -225.460938 L 0 -92.636719 L 77.527344 -92.636719 C 77.527344 -92.636719 114.296875 -94.347656 114.296875 -67.554688 C 114.296875 -45.605469 91.78125 -41.613281 77.527344 -41.613281 L 43.609375 -41.613281 L 43.609375 0 L 77.527344 0 C 92.921875 0 157.910156 -2.851562 157.910156 -66.414062 C 157.910156 -66.414062 159.332031 -101.757812 123.132812 -114.011719 C 140.523438 -121.140625 154.773438 -136.246094 154.773438 -162.753906 Z M 154.773438 -162.753906 "/></g></g></g><g clip-path="url(#id1)"><path fill="#ffffff" d="M 56.042969 208.503906 L 270.53125 208.503906 L 270.53125 237.003906 L 56.042969 237.003906 L 56.042969 208.503906 " fill-opacity="1" fill-rule="nonzero"/></g><g fill="#000000" fill-opacity="1"><g transform="translate(69.114545, 227.407706)"><g><path d="M 7.609375 0 L 6.78125 -2.421875 L 3.171875 -2.421875 L 2.328125 0 L 0.34375 0 L 3.796875 -9.46875 L 6.140625 -9.46875 L 9.578125 0 Z M 4.96875 -8.015625 L 4.921875 -7.859375 C 4.878906 -7.703125 4.828125 -7.519531 4.765625 -7.3125 C 4.703125 -7.101562 4.316406 -5.96875 3.609375 -3.90625 L 6.328125 -3.90625 L 5.390625 -6.640625 L 5.109375 -7.546875 Z M 4.96875 -8.015625 "/></g></g></g><g fill="#000000" fill-opacity="1"><g transform="translate(83.852277, 227.407706)"><g><path d="M 0.921875 0 L 0.921875 -9.46875 L 2.90625 -9.46875 L 2.90625 -1.53125 L 7.984375 -1.53125 L 7.984375 0 Z M 0.921875 0 "/></g></g></g><g fill="#000000" fill-opacity="1"><g transform="translate(97.057073, 227.407706)"><g><path d="M 0.921875 0 L 0.921875 -9.46875 L 2.90625 -9.46875 L 2.90625 0 Z M 0.921875 0 "/></g></g></g><g fill="#000000" fill-opacity="1"><g transform="translate(105.676508, 227.407706)"><g><path d="M 8.640625 -2.734375 C 8.640625 -1.804688 8.296875 -1.09375 7.609375 -0.59375 C 6.921875 -0.101562 5.910156 0.140625 4.578125 0.140625 C 3.367188 0.140625 2.414062 -0.0703125 1.71875 -0.5 C 1.03125 -0.9375 0.585938 -1.59375 0.390625 -2.46875 L 2.3125 -2.78125 C 2.4375 -2.28125 2.6875 -1.914062 3.0625 -1.6875 C 3.445312 -1.457031 3.972656 -1.34375 4.640625 -1.34375 C 6.023438 -1.34375 6.71875 -1.765625 6.71875 -2.609375 C 6.71875 -2.878906 6.632812 -3.101562 6.46875 -3.28125 C 6.3125 -3.457031 6.085938 -3.601562 5.796875 -3.71875 C 5.515625 -3.832031 4.960938 -3.972656 4.140625 -4.140625 C 3.429688 -4.304688 2.9375 -4.4375 2.65625 -4.53125 C 2.382812 -4.632812 2.132812 -4.753906 1.90625 -4.890625 C 1.6875 -5.035156 1.5 -5.203125 1.34375 -5.390625 C 1.1875 -5.578125 1.0625 -5.800781 0.96875 -6.0625 C 0.882812 -6.320312 0.84375 -6.625 0.84375 -6.96875 C 0.84375 -7.820312 1.160156 -8.472656 1.796875 -8.921875 C 2.441406 -9.378906 3.378906 -9.609375 4.609375 -9.609375 C 5.785156 -9.609375 6.664062 -9.425781 7.25 -9.0625 C 7.84375 -8.695312 8.222656 -8.085938 8.390625 -7.234375 L 6.46875 -6.984375 C 6.375 -7.390625 6.175781 -7.691406 5.875 -7.890625 C 5.570312 -8.097656 5.140625 -8.203125 4.578125 -8.203125 C 3.367188 -8.203125 2.765625 -7.828125 2.765625 -7.078125 C 2.765625 -6.828125 2.828125 -6.625 2.953125 -6.46875 C 3.085938 -6.3125 3.28125 -6.175781 3.53125 -6.0625 C 3.78125 -5.957031 4.285156 -5.820312 5.046875 -5.65625 C 5.960938 -5.46875 6.613281 -5.289062 7 -5.125 C 7.394531 -4.957031 7.707031 -4.765625 7.9375 -4.546875 C 8.164062 -4.335938 8.335938 -4.082031 8.453125 -3.78125 C 8.578125 -3.476562 8.640625 -3.128906 8.640625 -2.734375 Z M 8.640625 -2.734375 "/></g></g></g><g fill="#000000" fill-opacity="1"><g transform="translate(119.654489, 227.407706)"><g><path d="M 8.640625 -2.734375 C 8.640625 -1.804688 8.296875 -1.09375 7.609375 -0.59375 C 6.921875 -0.101562 5.910156 0.140625 4.578125 0.140625 C 3.367188 0.140625 2.414062 -0.0703125 1.71875 -0.5 C 1.03125 -0.9375 0.585938 -1.59375 0.390625 -2.46875 L 2.3125 -2.78125 C 2.4375 -2.28125 2.6875 -1.914062 3.0625 -1.6875 C 3.445312 -1.457031 3.972656 -1.34375 4.640625 -1.34375 C 6.023438 -1.34375 6.71875 -1.765625 6.71875 -2.609375 C 6.71875 -2.878906 6.632812 -3.101562 6.46875 -3.28125 C 6.3125 -3.457031 6.085938 -3.601562 5.796875 -3.71875 C 5.515625 -3.832031 4.960938 -3.972656 4.140625 -4.140625 C 3.429688 -4.304688 2.9375 -4.4375 2.65625 -4.53125 C 2.382812 -4.632812 2.132812 -4.753906 1.90625 -4.890625 C 1.6875 -5.035156 1.5 -5.203125 1.34375 -5.390625 C 1.1875 -5.578125 1.0625 -5.800781 0.96875 -6.0625 C 0.882812 -6.320312 0.84375 -6.625 0.84375 -6.96875 C 0.84375 -7.820312 1.160156 -8.472656 1.796875 -8.921875 C 2.441406 -9.378906 3.378906 -9.609375 4.609375 -9.609375 C 5.785156 -9.609375 6.664062 -9.425781 7.25 -9.0625 C 7.84375 -8.695312 8.222656 -8.085938 8.390625 -7.234375 L 6.46875 -6.984375 C 6.375 -7.390625 6.175781 -7.691406 5.875 -7.890625 C 5.570312 -8.097656 5.140625 -8.203125 4.578125 -8.203125 C 3.367188 -8.203125 2.765625 -7.828125 2.765625 -7.078125 C 2.765625 -6.828125 2.828125 -6.625 2.953125 -6.46875 C 3.085938 -6.3125 3.28125 -6.175781 3.53125 -6.0625 C 3.78125 -5.957031 4.285156 -5.820312 5.046875 -5.65625 C 5.960938 -5.46875 6.613281 -5.289062 7 -5.125 C 7.394531 -4.957031 7.707031 -4.765625 7.9375 -4.546875 C 8.164062 -4.335938 8.335938 -4.082031 8.453125 -3.78125 C 8.578125 -3.476562 8.640625 -3.128906 8.640625 -2.734375 Z M 8.640625 -2.734375 "/></g></g></g><g fill="#000000" fill-opacity="1"><g transform="translate(133.632474, 227.407706)"><g><path d="M 7.609375 0 L 6.78125 -2.421875 L 3.171875 -2.421875 L 2.328125 0 L 0.34375 0 L 3.796875 -9.46875 L 6.140625 -9.46875 L 9.578125 0 Z M 4.96875 -8.015625 L 4.921875 -7.859375 C 4.878906 -7.703125 4.828125 -7.519531 4.765625 -7.3125 C 4.703125 -7.101562 4.316406 -5.96875 3.609375 -3.90625 L 6.328125 -3.90625 L 5.390625 -6.640625 L 5.109375 -7.546875 Z M 4.96875 -8.015625 "/></g></g></g><g fill="#000000" fill-opacity="1"><g transform="translate(148.370208, 227.407706)"><g/></g></g><g fill="#000000" fill-opacity="1"><g transform="translate(156.989646, 227.407706)"><g><path d="M 9.3125 -2.703125 C 9.3125 -1.835938 8.988281 -1.171875 8.34375 -0.703125 C 7.695312 -0.234375 6.800781 0 5.65625 0 L 0.921875 0 L 0.921875 -9.46875 L 5.25 -9.46875 C 6.40625 -9.46875 7.28125 -9.265625 7.875 -8.859375 C 8.46875 -8.460938 8.765625 -7.875 8.765625 -7.09375 C 8.765625 -6.550781 8.613281 -6.09375 8.3125 -5.71875 C 8.019531 -5.351562 7.570312 -5.109375 6.96875 -4.984375 C 7.726562 -4.890625 8.304688 -4.644531 8.703125 -4.25 C 9.109375 -3.863281 9.3125 -3.347656 9.3125 -2.703125 Z M 6.78125 -6.828125 C 6.78125 -7.242188 6.644531 -7.539062 6.375 -7.71875 C 6.101562 -7.90625 5.695312 -8 5.15625 -8 L 2.90625 -8 L 2.90625 -5.65625 L 5.171875 -5.65625 C 5.734375 -5.65625 6.140625 -5.75 6.390625 -5.9375 C 6.648438 -6.132812 6.78125 -6.429688 6.78125 -6.828125 Z M 7.328125 -2.859375 C 7.328125 -3.742188 6.691406 -4.1875 5.421875 -4.1875 L 2.90625 -4.1875 L 2.90625 -1.46875 L 5.484375 -1.46875 C 6.128906 -1.46875 6.597656 -1.582031 6.890625 -1.8125 C 7.179688 -2.050781 7.328125 -2.398438 7.328125 -2.859375 Z M 7.328125 -2.859375 "/></g></g></g><g fill="#000000" fill-opacity="1"><g transform="translate(171.727381, 227.407706)"><g><path d="M 10.125 -4.78125 C 10.125 -3.789062 9.925781 -2.921875 9.53125 -2.171875 C 9.144531 -1.429688 8.585938 -0.859375 7.859375 -0.453125 C 7.140625 -0.0546875 6.296875 0.140625 5.328125 0.140625 C 3.835938 0.140625 2.671875 -0.296875 1.828125 -1.171875 C 0.984375 -2.054688 0.5625 -3.257812 0.5625 -4.78125 C 0.5625 -6.300781 0.984375 -7.484375 1.828125 -8.328125 C 2.671875 -9.179688 3.84375 -9.609375 5.34375 -9.609375 C 6.84375 -9.609375 8.015625 -9.175781 8.859375 -8.3125 C 9.703125 -7.457031 10.125 -6.28125 10.125 -4.78125 Z M 8.109375 -4.78125 C 8.109375 -5.800781 7.863281 -6.597656 7.375 -7.171875 C 6.894531 -7.753906 6.21875 -8.046875 5.34375 -8.046875 C 4.457031 -8.046875 3.769531 -7.757812 3.28125 -7.1875 C 2.800781 -6.613281 2.5625 -5.8125 2.5625 -4.78125 C 2.5625 -3.738281 2.804688 -2.914062 3.296875 -2.3125 C 3.796875 -1.71875 4.472656 -1.421875 5.328125 -1.421875 C 6.210938 -1.421875 6.894531 -1.710938 7.375 -2.296875 C 7.863281 -2.878906 8.109375 -3.707031 8.109375 -4.78125 Z M 8.109375 -4.78125 "/></g></g></g><g fill="#000000" fill-opacity="1"><g transform="translate(187.231584, 227.407706)"><g><path d="M 7.421875 0 L 5.234375 -3.59375 L 2.90625 -3.59375 L 2.90625 0 L 0.921875 0 L 0.921875 -9.46875 L 5.65625 -9.46875 C 6.78125 -9.46875 7.648438 -9.222656 8.265625 -8.734375 C 8.878906 -8.253906 9.1875 -7.554688 9.1875 -6.640625 C 9.1875 -5.984375 9 -5.410156 8.625 -4.921875 C 8.25 -4.441406 7.738281 -4.128906 7.09375 -3.984375 L 9.65625 0 Z M 7.1875 -6.5625 C 7.1875 -7.476562 6.601562 -7.9375 5.4375 -7.9375 L 2.90625 -7.9375 L 2.90625 -5.140625 L 5.5 -5.140625 C 6.050781 -5.140625 6.46875 -5.265625 6.75 -5.515625 C 7.039062 -5.765625 7.1875 -6.113281 7.1875 -6.5625 Z M 7.1875 -6.5625 "/></g></g></g><g fill="#000000" fill-opacity="1"><g transform="translate(201.969318, 227.407706)"><g><path d="M 9.359375 -4.8125 C 9.359375 -3.832031 9.164062 -2.976562 8.78125 -2.25 C 8.40625 -1.519531 7.863281 -0.960938 7.15625 -0.578125 C 6.457031 -0.191406 5.65625 0 4.75 0 L 0.921875 0 L 0.921875 -9.46875 L 4.34375 -9.46875 C 5.9375 -9.46875 7.171875 -9.066406 8.046875 -8.265625 C 8.921875 -7.460938 9.359375 -6.3125 9.359375 -4.8125 Z M 7.359375 -4.8125 C 7.359375 -5.820312 7.09375 -6.59375 6.5625 -7.125 C 6.039062 -7.664062 5.289062 -7.9375 4.3125 -7.9375 L 2.90625 -7.9375 L 2.90625 -1.53125 L 4.578125 -1.53125 C 5.429688 -1.53125 6.109375 -1.820312 6.609375 -2.40625 C 7.109375 -3 7.359375 -3.800781 7.359375 -4.8125 Z M 7.359375 -4.8125 "/></g></g></g><g fill="#000000" fill-opacity="1"><g transform="translate(216.707053, 227.407706)"><g><path d="M 10.53125 0 L 8.1875 0 L 6.890625 -5.484375 C 6.734375 -6.128906 6.601562 -6.800781 6.5 -7.5 C 6.394531 -6.914062 6.304688 -6.46875 6.234375 -6.15625 C 6.171875 -5.851562 5.695312 -3.800781 4.8125 0 L 2.453125 0 L 0.015625 -9.46875 L 2.015625 -9.46875 L 3.390625 -3.359375 L 3.703125 -1.875 C 3.828125 -2.5 3.945312 -3.09375 4.0625 -3.65625 C 4.1875 -4.226562 4.632812 -6.164062 5.40625 -9.46875 L 7.625 -9.46875 L 8.828125 -4.421875 C 8.921875 -4.046875 9.078125 -3.195312 9.296875 -1.875 L 9.46875 -2.65625 L 9.828125 -4.203125 L 10.96875 -9.46875 L 12.984375 -9.46875 Z M 10.53125 0 "/></g></g></g><g fill="#000000" fill-opacity="1"><g transform="translate(234.497213, 227.407706)"><g><path d="M 0.921875 0 L 0.921875 -9.46875 L 2.90625 -9.46875 L 2.90625 0 Z M 0.921875 0 "/></g></g></g><g fill="#000000" fill-opacity="1"><g transform="translate(243.11665, 227.407706)"><g><path d="M 5.34375 -1.421875 C 6.539062 -1.421875 7.375 -2.019531 7.84375 -3.21875 L 9.5625 -2.578125 C 9.1875 -1.660156 8.640625 -0.976562 7.921875 -0.53125 C 7.203125 -0.0820312 6.34375 0.140625 5.34375 0.140625 C 3.820312 0.140625 2.644531 -0.289062 1.8125 -1.15625 C 0.976562 -2.019531 0.5625 -3.226562 0.5625 -4.78125 C 0.5625 -6.332031 0.960938 -7.523438 1.765625 -8.359375 C 2.566406 -9.191406 3.726562 -9.609375 5.25 -9.609375 C 6.363281 -9.609375 7.269531 -9.382812 7.96875 -8.9375 C 8.664062 -8.5 9.15625 -7.847656 9.4375 -6.984375 L 7.703125 -6.5 C 7.546875 -6.976562 7.25 -7.351562 6.8125 -7.625 C 6.382812 -7.90625 5.878906 -8.046875 5.296875 -8.046875 C 4.398438 -8.046875 3.71875 -7.769531 3.25 -7.21875 C 2.789062 -6.664062 2.5625 -5.851562 2.5625 -4.78125 C 2.5625 -3.6875 2.800781 -2.851562 3.28125 -2.28125 C 3.757812 -1.707031 4.445312 -1.421875 5.34375 -1.421875 Z M 5.34375 -1.421875 "/></g></g></g><g fill="#000000" fill-opacity="1"><g transform="translate(257.854385, 227.407706)"><g><path d="M 7.46875 0 L 4.078125 -4.34375 L 2.90625 -3.453125 L 2.90625 0 L 0.921875 0 L 0.921875 -9.46875 L 2.90625 -9.46875 L 2.90625 -5.171875 L 7.171875 -9.46875 L 9.484375 -9.46875 L 5.4375 -5.46875 L 9.8125 0 Z M 7.46875 0 "/></g></g></g></svg>